<svg width="130" height="130" viewBox="0 0 130 130" fill="none" xmlns="http://www.w3.org/2000/svg">
<path d="M56.999 4.61816C61.9494 1.76005 68.0486 1.76005 72.999 4.61816L113.291 27.8799C118.241 30.7379 121.291 36.0203 121.291 41.7363V88.2617C121.291 93.9778 118.241 99.2601 113.291 102.118L72.999 125.38C68.0486 128.238 61.9494 128.238 56.999 125.38L16.707 102.118C11.7568 99.2601 8.70712 93.9778 8.70703 88.2617V41.7363C8.70717 36.0203 11.7568 30.7379 16.707 27.8799L56.999 4.61816ZM66.4912 23.8057C66.2983 22.0206 63.7017 22.0205 63.5088 23.8057L60.2158 54.291C60.1068 55.3005 59.047 55.9132 58.1182 55.5029L30.0703 43.1113C28.4279 42.3857 27.1295 44.6347 28.5791 45.6943L53.334 63.79C54.1533 64.3893 54.1535 65.6128 53.334 66.2119L28.5791 84.3066C27.1295 85.3662 28.4279 87.6152 30.0703 86.8896L58.1182 74.499C59.047 74.0887 60.1068 74.7004 60.2158 75.71L63.5088 106.195C63.7016 107.98 66.2984 107.98 66.4912 106.195L69.7852 75.71C69.8942 74.7004 70.954 74.0887 71.8828 74.499L99.9307 86.8896C101.573 87.6149 102.871 85.3662 101.422 84.3066L76.667 66.2119C75.8473 65.6127 75.8474 64.3893 76.667 63.79L101.422 45.6943C102.871 44.6347 101.573 42.3862 99.9307 43.1113L71.8828 55.5029C70.954 55.9132 69.8942 55.3005 69.7852 54.291L66.4912 23.8057Z" fill="url(#paint0_radial_28593_83697)"/>
<defs>
<radialGradient id="paint0_radial_28593_83697" cx="0" cy="0" r="1" gradientTransform="matrix(-9.49845 103.995 -102.966 -9.57368 74.4984 15.0048)" gradientUnits="userSpaceOnUse">
<stop stop-color="#6BB8FF"/>
<stop offset="0.278846" stop-color="#5C8AFF"/>
<stop offset="0.543269" stop-color="#7A85FF"/>
<stop offset="0.956731" stop-color="#0A57FF"/>
</radialGradient>
</defs>
</svg>
