<svg width="32" height="32" viewBox="0 0 32 32" fill="none" xmlns="http://www.w3.org/2000/svg">
<path d="M3.19995 8.3202C3.19995 5.4925 5.49225 3.2002 8.31995 3.2002H23.6799C26.5076 3.2002 28.8 5.4925 28.8 8.3202V23.6802C28.8 26.5079 26.5077 28.8002 23.68 28.8002H8.31996C5.49226 28.8002 3.19995 26.5079 3.19995 23.6802V8.3202Z" fill="#46B855"/>
<path fill-rule="evenodd" clip-rule="evenodd" d="M8.8 8.7998C8.35817 8.7998 8 9.15798 8 9.5998V11.1998C8 11.6416 8.35817 11.9998 8.8 11.9998H13.6C14.0418 11.9998 14.4 11.6416 14.4 11.1998V9.5998C14.4 9.15798 14.0418 8.7998 13.6 8.7998H8.8ZM8.8 14.3998C8.35817 14.3998 8 14.758 8 15.1998V16.7998C8 17.2416 8.35817 17.5998 8.8 17.5998H13.6C14.0418 17.5998 14.4 17.2416 14.4 16.7998V15.1998C14.4 14.758 14.0418 14.3998 13.6 14.3998H8.8ZM8 20.7998C8 20.358 8.35817 19.9998 8.8 19.9998H13.6C14.0418 19.9998 14.4 20.358 14.4 20.7998V22.3998C14.4 22.8416 14.0418 23.1998 13.6 23.1998H8.8C8.35817 23.1998 8 22.8416 8 22.3998V20.7998ZM18.4 8.7998C17.9582 8.7998 17.6 9.15798 17.6 9.5998V11.1998C17.6 11.6416 17.9582 11.9998 18.4 11.9998H23.2C23.6418 11.9998 24 11.6416 24 11.1998V9.5998C24 9.15798 23.6418 8.7998 23.2 8.7998H18.4ZM17.6 15.1998C17.6 14.758 17.9582 14.3998 18.4 14.3998H23.2C23.6418 14.3998 24 14.758 24 15.1998V16.7998C24 17.2416 23.6418 17.5998 23.2 17.5998H18.4C17.9582 17.5998 17.6 17.2416 17.6 16.7998V15.1998ZM18.4 19.9998C17.9582 19.9998 17.6 20.358 17.6 20.7998V22.3998C17.6 22.8416 17.9582 23.1998 18.4 23.1998H23.2C23.6418 23.1998 24 22.8416 24 22.3998V20.7998C24 20.358 23.6418 19.9998 23.2 19.9998H18.4Z" fill="white"/>
</svg>
