<svg width="32" height="32" viewBox="0 0 32 32" fill="none" xmlns="http://www.w3.org/2000/svg">
<rect x="3.19995" y="3.2002" width="25.6" height="25.6" rx="5.12" fill="#8E64D4"/>
<path d="M9.6 20.8C10.4837 20.8 11.2 21.5163 11.2 22.4C11.2 23.2837 10.4837 24 9.6 24C8.71634 24 8 23.2837 8 22.4C8 21.5163 8.71634 20.8 9.6 20.8Z" fill="white"/>
<path d="M24 24H14.4V20.8H24V24Z" fill="white"/>
<path d="M9.6 14.4C10.4837 14.4 11.2 15.1163 11.2 16C11.2 16.8837 10.4837 17.6 9.6 17.6C8.71634 17.6 8 16.8837 8 16C8 15.1163 8.71634 14.4 9.6 14.4Z" fill="white"/>
<path d="M24 17.6H14.4V14.4H24V17.6Z" fill="white"/>
<path d="M9.6 8C10.4837 8 11.2 8.71634 11.2 9.6C11.2 10.4837 10.4837 11.2 9.6 11.2C8.71634 11.2 8 10.4837 8 9.6C8 8.71634 8.71634 8 9.6 8Z" fill="white"/>
<path d="M24 11.2H14.4V8H24V11.2Z" fill="white"/>
</svg>
