<svg width="32" height="32" viewBox="0 0 32 32" fill="none" xmlns="http://www.w3.org/2000/svg">
<path d="M3.2002 6.4002C3.2002 4.63288 4.63288 3.2002 6.4002 3.2002H25.6002C27.3675 3.2002 28.8002 4.63288 28.8002 6.4002V25.6002C28.8002 27.3675 27.3675 28.8002 25.6002 28.8002H6.4002C4.63288 28.8002 3.2002 27.3675 3.2002 25.6002V6.4002Z" fill="url(#paint0_radial_711_16311)"/>
<path d="M11.5204 20.4799C11.6082 20.4799 11.6944 20.5093 11.7641 20.5627C11.8339 20.6163 11.8851 20.6918 11.9079 20.7768C11.9636 20.998 12.0779 21.1998 12.2391 21.3611C12.4004 21.5224 12.6024 21.6382 12.8235 21.6939C12.9083 21.7167 12.9841 21.7665 13.0376 21.8361C13.0911 21.9059 13.1204 21.9919 13.1204 22.0799C13.1204 22.1678 13.0911 22.2539 13.0376 22.3236C12.9841 22.3932 12.9083 22.4431 12.8235 22.4658C12.6026 22.5215 12.4004 22.636 12.2391 22.7971C12.0778 22.9585 11.9636 23.1616 11.9079 23.383C11.8853 23.4682 11.8339 23.5433 11.7641 23.5971C11.6944 23.6507 11.6084 23.6798 11.5204 23.6799C11.4325 23.6798 11.3464 23.6507 11.2766 23.5971C11.207 23.5433 11.157 23.468 11.1345 23.383C11.0788 23.1617 10.9645 22.9585 10.8032 22.7971C10.6419 22.6358 10.4385 22.5216 10.2173 22.4658C10.1323 22.4432 10.0569 22.3933 10.0032 22.3236C9.9495 22.2538 9.92048 22.1679 9.92039 22.0799C9.9204 21.9918 9.94961 21.906 10.0032 21.8361C10.0569 21.7664 10.1322 21.715 10.2173 21.6924C10.4385 21.6366 10.6419 21.5225 10.8032 21.3611C10.9642 21.1999 11.0787 20.9977 11.1345 20.7768L11.1579 20.7143C11.1897 20.6447 11.2405 20.5853 11.3048 20.5439C11.369 20.5027 11.4441 20.48 11.5204 20.4799Z" fill="white"/>
<path d="M23.761 20.8002C24.423 20.8008 24.9607 21.3381 24.961 22.0002C24.9607 22.6623 24.4231 23.1996 23.761 23.2002H16.561C15.8985 23.2002 15.3613 22.6627 15.361 22.0002C15.3613 21.3377 15.8985 20.8002 16.561 20.8002H23.761Z" fill="white"/>
<path d="M11.0548 7.51895C11.1743 7.0315 11.8682 7.03139 11.9876 7.51895L12.6345 10.1783C12.6992 10.4444 12.9732 10.6023 13.236 10.5252L15.861 9.75488C16.343 9.61443 16.6909 10.2171 16.3282 10.5643L14.3485 12.4518C14.1503 12.6409 14.1503 12.958 14.3485 13.1471L16.3282 15.0361C16.6912 15.3834 16.3433 15.9849 15.861 15.8439L13.236 15.0736C12.9736 14.9967 12.6997 15.1551 12.6345 15.4205L11.9876 18.0799C11.8688 18.5687 11.1735 18.5688 11.0548 18.0799L10.4095 15.4205C10.3445 15.1552 10.0702 14.9974 9.80789 15.0736L7.18133 15.8439C6.69882 15.9849 6.35183 15.3833 6.71571 15.0361L8.69539 13.1471C8.89284 12.9579 8.89331 12.6406 8.69539 12.4518L6.71571 10.5643C6.35187 10.2171 6.69889 9.61406 7.18133 9.75488L9.80789 10.5252C10.0706 10.6018 10.3448 10.4443 10.4095 10.1783L11.0548 7.51895Z" fill="white"/>
<path d="M23.6532 14.8002C24.3155 14.8005 24.8529 15.3379 24.8532 16.0002C24.8529 16.6625 24.3155 17.1999 23.6532 17.2002H19.6532C18.9907 17.2001 18.4535 16.6627 18.4532 16.0002C18.4535 15.3378 18.9907 14.8003 19.6532 14.8002H23.6532Z" fill="white"/>
<path d="M23.6532 8.8002C24.3155 8.80053 24.8529 9.33793 24.8532 10.0002C24.8529 10.6625 24.3155 11.1999 23.6532 11.2002H19.6532C18.9907 11.2001 18.4535 10.6627 18.4532 10.0002C18.4535 9.33776 18.9907 8.80026 19.6532 8.8002H23.6532Z" fill="white"/>
<defs>
<radialGradient id="paint0_radial_711_16311" cx="0" cy="0" r="1" gradientTransform="matrix(-2.74274 26.3422 -29.4242 -7.49968 18.7431 3.2002)" gradientUnits="userSpaceOnUse">
<stop stop-color="#6BB8FF"/>
<stop offset="0.278846" stop-color="#5C8AFF"/>
<stop offset="0.543269" stop-color="#6673FF"/>
<stop offset="0.956731" stop-color="#0A57FF"/>
</radialGradient>
</defs>
</svg>
