<svg width="120" height="28" viewBox="0 0 120 28" fill="none" xmlns="http://www.w3.org/2000/svg">
<rect width="120" height="28" rx="6" fill="url(#paint0_radial_711_17882)"/>
<rect x="0.5" y="0.5" width="119" height="27" rx="5.5" stroke="#9FA3AD" stroke-opacity="0.07"/>
<path d="M19.0156 6.56839C19.6248 6.21682 20.3752 6.21675 20.9844 6.56839L25.9434 9.43168C26.5526 9.78342 26.9277 10.4333 26.9277 11.1368V16.8633C26.9276 17.5667 26.5525 18.2167 25.9434 18.5684L20.9844 21.4317C20.3753 21.7833 19.6248 21.7832 19.0156 21.4317L14.0566 18.5684C13.4475 18.2167 13.0714 17.5667 13.0713 16.8633V11.1368C13.0713 10.4333 13.4474 9.78342 14.0566 9.43168L19.0156 6.56839ZM20.1836 8.92972C20.1596 8.71036 19.8404 8.71036 19.8164 8.92972L19.4111 12.6817C19.3977 12.8058 19.2676 12.8814 19.1533 12.8311L15.7012 11.3057C15.499 11.2164 15.3392 11.4936 15.5176 11.6241L18.5645 13.8506C18.6653 13.9244 18.6653 14.0757 18.5645 14.1494L15.5176 16.376C15.3392 16.5064 15.499 16.7837 15.7012 16.6944L19.1533 15.169C19.2676 15.1188 19.3977 15.1943 19.4111 15.3184L19.8164 19.0703C19.8402 19.29 20.1598 19.29 20.1836 19.0703L20.5889 15.3184C20.6023 15.1943 20.7325 15.1188 20.8467 15.169L24.2988 16.6944C24.501 16.7837 24.6608 16.5064 24.4824 16.376L21.4355 14.1494C21.3348 14.0757 21.3347 13.9243 21.4355 13.8506L24.4824 11.6241C24.6608 11.4936 24.501 11.2164 24.2988 11.3057L20.8467 12.8311C20.7324 12.8813 20.6023 12.8058 20.5889 12.6817L20.1836 8.92972Z" fill="url(#paint1_radial_711_17882)"/>
<path d="M33.4476 20V10.419H35.9306C36.9186 10.419 37.755 10.601 38.4396 10.965C39.1243 11.3203 39.6443 11.849 39.9996 12.551C40.3636 13.253 40.5456 14.1283 40.5456 15.177C40.5456 16.217 40.3636 17.0967 39.9996 17.816C39.6443 18.5353 39.1286 19.0813 38.4526 19.454C37.7766 19.818 36.962 20 36.0086 20H33.4476ZM34.9556 18.765H35.8266C36.5113 18.765 37.0876 18.6307 37.5556 18.362C38.0323 18.0933 38.3876 17.6947 38.6216 17.166C38.8643 16.6287 38.9856 15.9657 38.9856 15.177C38.9856 14.3797 38.8643 13.721 38.6216 13.201C38.3876 12.681 38.0323 12.2953 37.5556 12.044C37.0876 11.784 36.5113 11.654 35.8266 11.654H34.9556V18.765ZM43.7975 20.182C43.3901 20.182 43.0261 20.0953 42.7055 19.922C42.3935 19.7487 42.1465 19.506 41.9645 19.194C41.7825 18.882 41.6915 18.518 41.6915 18.102C41.6915 17.3307 42.0295 16.737 42.7055 16.321C43.3901 15.8963 44.4778 15.6017 45.9685 15.437C45.9598 15.1597 45.9165 14.904 45.8385 14.67C45.7605 14.436 45.6218 14.2497 45.4225 14.111C45.2318 13.9637 44.9588 13.89 44.6035 13.89C44.2308 13.89 43.8711 13.9637 43.5245 14.111C43.1778 14.2583 42.8485 14.4273 42.5365 14.618L41.9775 13.604C42.2288 13.448 42.5061 13.3007 42.8095 13.162C43.1128 13.0147 43.4378 12.8977 43.7845 12.811C44.1311 12.7157 44.4908 12.668 44.8635 12.668C45.4615 12.668 45.9511 12.7893 46.3325 13.032C46.7138 13.266 46.9955 13.6083 47.1775 14.059C47.3681 14.5097 47.4635 15.0557 47.4635 15.697V20H46.2415L46.1245 19.181H46.0725C45.7518 19.4583 45.4008 19.6967 45.0195 19.896C44.6381 20.0867 44.2308 20.182 43.7975 20.182ZM44.2525 18.986C44.5645 18.986 44.8548 18.9167 45.1235 18.778C45.3921 18.6307 45.6738 18.4183 45.9685 18.141V16.399C45.2665 16.477 44.7075 16.594 44.2915 16.75C43.8755 16.8973 43.5765 17.075 43.3945 17.283C43.2211 17.4823 43.1345 17.7163 43.1345 17.985C43.1345 18.3403 43.2428 18.596 43.4595 18.752C43.6761 18.908 43.9405 18.986 44.2525 18.986ZM51.4234 20.182C50.8861 20.182 50.4571 20.078 50.1364 19.87C49.8244 19.6533 49.5991 19.3587 49.4604 18.986C49.3217 18.6047 49.2524 18.1627 49.2524 17.66V14.046H48.2124V12.928L49.3304 12.837L49.4994 10.861H50.7474V12.837H52.6064V14.046H50.7474V17.673C50.7474 18.0977 50.8297 18.4227 50.9944 18.648C51.1591 18.8647 51.4277 18.973 51.8004 18.973C51.9217 18.973 52.0517 18.9557 52.1904 18.921C52.3291 18.8863 52.4504 18.8473 52.5544 18.804L52.8274 19.909C52.6367 19.9697 52.4201 20.0303 52.1774 20.091C51.9434 20.1517 51.6921 20.182 51.4234 20.182ZM55.1945 20.182C54.7872 20.182 54.4232 20.0953 54.1025 19.922C53.7905 19.7487 53.5435 19.506 53.3615 19.194C53.1795 18.882 53.0885 18.518 53.0885 18.102C53.0885 17.3307 53.4265 16.737 54.1025 16.321C54.7872 15.8963 55.8749 15.6017 57.3655 15.437C57.3569 15.1597 57.3135 14.904 57.2355 14.67C57.1575 14.436 57.0189 14.2497 56.8195 14.111C56.6289 13.9637 56.3559 13.89 56.0005 13.89C55.6279 13.89 55.2682 13.9637 54.9215 14.111C54.5749 14.2583 54.2455 14.4273 53.9335 14.618L53.3745 13.604C53.6259 13.448 53.9032 13.3007 54.2065 13.162C54.5099 13.0147 54.8349 12.8977 55.1815 12.811C55.5282 12.7157 55.8879 12.668 56.2605 12.668C56.8585 12.668 57.3482 12.7893 57.7295 13.032C58.1109 13.266 58.3925 13.6083 58.5745 14.059C58.7652 14.5097 58.8605 15.0557 58.8605 15.697V20H57.6385L57.5215 19.181H57.4695C57.1489 19.4583 56.7979 19.6967 56.4165 19.896C56.0352 20.0867 55.6279 20.182 55.1945 20.182ZM55.6495 18.986C55.9615 18.986 56.2519 18.9167 56.5205 18.778C56.7892 18.6307 57.0709 18.4183 57.3655 18.141V16.399C56.6635 16.477 56.1045 16.594 55.6885 16.75C55.2725 16.8973 54.9735 17.075 54.7915 17.283C54.6182 17.4823 54.5315 17.7163 54.5315 17.985C54.5315 18.3403 54.6399 18.596 54.8565 18.752C55.0732 18.908 55.3375 18.986 55.6495 18.986ZM62.6191 20.182C62.1337 20.182 61.6484 20.0867 61.1631 19.896C60.6864 19.7053 60.2747 19.467 59.9281 19.181L60.6431 18.206C60.9551 18.4573 61.2714 18.661 61.5921 18.817C61.9214 18.9643 62.2767 19.038 62.6581 19.038C63.0827 19.038 63.3947 18.947 63.5941 18.765C63.8021 18.5743 63.9061 18.3447 63.9061 18.076C63.9061 17.8593 63.8281 17.6773 63.6721 17.53C63.5247 17.3827 63.3297 17.257 63.0871 17.153C62.8444 17.0403 62.5931 16.9363 62.3331 16.841C62.0124 16.7197 61.6961 16.5767 61.3841 16.412C61.0807 16.2387 60.8294 16.022 60.6301 15.762C60.4307 15.4933 60.3311 15.1597 60.3311 14.761C60.3311 14.3537 60.4307 13.994 60.6301 13.682C60.8381 13.37 61.1327 13.123 61.5141 12.941C61.8954 12.759 62.3504 12.668 62.8791 12.668C63.3557 12.668 63.7891 12.7503 64.1791 12.915C64.5777 13.0797 64.9157 13.279 65.1931 13.513L64.5041 14.436C64.2527 14.254 63.9971 14.1067 63.7371 13.994C63.4771 13.8727 63.2041 13.812 62.9181 13.812C62.5194 13.812 62.2247 13.8987 62.0341 14.072C61.8434 14.2367 61.7481 14.4447 61.7481 14.696C61.7481 14.8953 61.8174 15.06 61.9561 15.19C62.0947 15.32 62.2767 15.4327 62.5021 15.528C62.7361 15.6233 62.9831 15.723 63.2431 15.827C63.4944 15.9137 63.7414 16.0177 63.9841 16.139C64.2354 16.2517 64.4607 16.3903 64.6601 16.555C64.8594 16.711 65.0197 16.906 65.1411 17.14C65.2711 17.3653 65.3361 17.647 65.3361 17.985C65.3361 18.3837 65.2321 18.752 65.0241 19.09C64.8161 19.428 64.5127 19.6967 64.1141 19.896C63.7154 20.0867 63.2171 20.182 62.6191 20.182ZM66.6282 22.899V12.837H67.8502L67.9802 13.63H68.0062C68.3268 13.37 68.6735 13.1447 69.0462 12.954C69.4188 12.7633 69.8088 12.668 70.2162 12.668C70.8142 12.668 71.3255 12.8197 71.7502 13.123C72.1748 13.4263 72.4955 13.851 72.7122 14.397C72.9288 14.9343 73.0372 15.5713 73.0372 16.308C73.0372 17.1227 72.8898 17.8203 72.5952 18.401C72.3092 18.9817 71.9322 19.4237 71.4642 19.727C70.9962 20.0303 70.4935 20.182 69.9562 20.182C69.6442 20.182 69.3278 20.1127 69.0072 19.974C68.6865 19.8267 68.3788 19.623 68.0842 19.363L68.1232 20.585V22.899H66.6282ZM69.6702 18.921C70.0168 18.921 70.3245 18.8213 70.5932 18.622C70.8705 18.4227 71.0872 18.1323 71.2432 17.751C71.4078 17.361 71.4902 16.8887 71.4902 16.334C71.4902 15.8313 71.4295 15.4023 71.3082 15.047C71.1955 14.683 71.0178 14.4057 70.7752 14.215C70.5325 14.0157 70.2118 13.916 69.8132 13.916C69.5358 13.916 69.2585 13.9897 68.9812 14.137C68.7125 14.2757 68.4265 14.4923 68.1232 14.787V18.284C68.4005 18.518 68.6735 18.6827 68.9422 18.778C69.2108 18.8733 69.4535 18.921 69.6702 18.921ZM75.9527 20.182C75.5454 20.182 75.1814 20.0953 74.8607 19.922C74.5487 19.7487 74.3017 19.506 74.1197 19.194C73.9377 18.882 73.8467 18.518 73.8467 18.102C73.8467 17.3307 74.1847 16.737 74.8607 16.321C75.5454 15.8963 76.6331 15.6017 78.1237 15.437C78.1151 15.1597 78.0717 14.904 77.9937 14.67C77.9157 14.436 77.7771 14.2497 77.5777 14.111C77.3871 13.9637 77.1141 13.89 76.7587 13.89C76.3861 13.89 76.0264 13.9637 75.6797 14.111C75.3331 14.2583 75.0037 14.4273 74.6917 14.618L74.1327 13.604C74.3841 13.448 74.6614 13.3007 74.9647 13.162C75.2681 13.0147 75.5931 12.8977 75.9397 12.811C76.2864 12.7157 76.6461 12.668 77.0187 12.668C77.6167 12.668 78.1064 12.7893 78.4877 13.032C78.8691 13.266 79.1507 13.6083 79.3327 14.059C79.5234 14.5097 79.6187 15.0557 79.6187 15.697V20H78.3967L78.2797 19.181H78.2277C77.9071 19.4583 77.5561 19.6967 77.1747 19.896C76.7934 20.0867 76.3861 20.182 75.9527 20.182ZM76.4077 18.986C76.7197 18.986 77.0101 18.9167 77.2787 18.778C77.5474 18.6307 77.8291 18.4183 78.1237 18.141V16.399C77.4217 16.477 76.8627 16.594 76.4467 16.75C76.0307 16.8973 75.7317 17.075 75.5497 17.283C75.3764 17.4823 75.2897 17.7163 75.2897 17.985C75.2897 18.3403 75.3981 18.596 75.6147 18.752C75.8314 18.908 76.0957 18.986 76.4077 18.986ZM84.3523 20.182C83.7023 20.182 83.1216 20.0347 82.6103 19.74C82.0989 19.4367 81.6916 19.0077 81.3883 18.453C81.0849 17.8897 80.9333 17.2137 80.9333 16.425C80.9333 15.6277 81.0979 14.9517 81.4273 14.397C81.7566 13.8337 82.1899 13.4047 82.7273 13.11C83.2646 12.8153 83.8453 12.668 84.4693 12.668C84.9286 12.668 85.3273 12.746 85.6653 12.902C86.0033 13.058 86.3023 13.253 86.5623 13.487L85.8213 14.462C85.6306 14.2887 85.4313 14.1543 85.2233 14.059C85.0153 13.955 84.7899 13.903 84.5473 13.903C84.1486 13.903 83.7933 14.0113 83.4813 14.228C83.1693 14.436 82.9223 14.7307 82.7403 15.112C82.5669 15.4847 82.4803 15.9223 82.4803 16.425C82.4803 16.9277 82.5669 17.3697 82.7403 17.751C82.9136 18.1237 83.1519 18.414 83.4553 18.622C83.7586 18.83 84.1053 18.934 84.4953 18.934C84.7986 18.934 85.0803 18.8733 85.3403 18.752C85.6003 18.622 85.8386 18.466 86.0553 18.284L86.6793 19.285C86.3499 19.5797 85.9816 19.805 85.5743 19.961C85.1669 20.1083 84.7596 20.182 84.3523 20.182ZM90.4525 20.182C89.8025 20.182 89.2132 20.0347 88.6845 19.74C88.1559 19.4367 87.7355 19.0077 87.4235 18.453C87.1115 17.8897 86.9555 17.2137 86.9555 16.425C86.9555 15.8443 87.0465 15.3243 87.2285 14.865C87.4105 14.397 87.6575 14.0027 87.9695 13.682C88.2815 13.3527 88.6325 13.1013 89.0225 12.928C89.4125 12.7547 89.8112 12.668 90.2185 12.668C90.8512 12.668 91.3842 12.811 91.8175 13.097C92.2509 13.3743 92.5802 13.7687 92.8055 14.28C93.0309 14.7827 93.1435 15.372 93.1435 16.048C93.1435 16.1953 93.1349 16.3383 93.1175 16.477C93.1089 16.607 93.0915 16.7197 93.0655 16.815H88.4245C88.4679 17.2657 88.5849 17.6557 88.7755 17.985C88.9749 18.3057 89.2305 18.557 89.5425 18.739C89.8632 18.9123 90.2272 18.999 90.6345 18.999C90.9552 18.999 91.2542 18.9513 91.5315 18.856C91.8089 18.7607 92.0775 18.6307 92.3375 18.466L92.8575 19.415C92.5282 19.6317 92.1599 19.8137 91.7525 19.961C91.3539 20.1083 90.9205 20.182 90.4525 20.182ZM88.4115 15.775H91.8435C91.8435 15.1683 91.7049 14.696 91.4275 14.358C91.1589 14.02 90.7645 13.851 90.2445 13.851C89.9499 13.851 89.6725 13.9247 89.4125 14.072C89.1525 14.2193 88.9315 14.436 88.7495 14.722C88.5762 15.008 88.4635 15.359 88.4115 15.775ZM96.0147 20L99.1867 10.419H100.929L104.101 20H102.502L100.955 14.8C100.799 14.28 100.647 13.7557 100.5 13.227C100.352 12.6897 100.205 12.1523 100.058 11.615H100.006C99.8671 12.161 99.7197 12.6983 99.5637 13.227C99.4164 13.7557 99.2647 14.28 99.1087 14.8L97.5617 20H96.0147ZM97.8087 17.283V16.087H102.281V17.283H97.8087ZM105.063 20V10.419H106.571V20H105.063Z" fill="#2469FF"/>
<defs>
<radialGradient id="paint0_radial_711_17882" cx="0" cy="0" r="1" gradientTransform="matrix(-10.1246 26.0061 -122.571 -2.14816 70.1252 2.80567)" gradientUnits="userSpaceOnUse">
<stop stop-color="#F5FAFF"/>
<stop offset="0.278846" stop-color="#E6EDFF"/>
<stop offset="0.543269" stop-color="#F0F1FF"/>
<stop offset="0.956731" stop-color="#E0EAFF"/>
</radialGradient>
<radialGradient id="paint1_radial_711_17882" cx="0" cy="0" r="1" gradientTransform="matrix(-1.16904 12.7994 -12.6726 -1.1783 21.1687 7.84687)" gradientUnits="userSpaceOnUse">
<stop stop-color="#6BB8FF"/>
<stop offset="0.278846" stop-color="#5C8AFF"/>
<stop offset="0.543269" stop-color="#7A85FF"/>
<stop offset="0.956731" stop-color="#0A57FF"/>
</radialGradient>
</defs>
</svg>
